# xmcd
#
# Track frame offsets: 
#        182
#        20505
#        40905
#        60545
#        98400
#        129850
#        151097
#        180055
#
# Disc length: 2619 seconds
#
# Revision: 3
# Processed by: cddbd v1.5.2PL0 Copyright (c) Steve Scherf et al.
# Submitted via: ExactAudioCopy v1.3
#
DISCID=4b0a3908
DTITLE=Loreena McKennitt - Parallel Dreams
DYEAR=1989
DGENRE=Celtic
TTITLE0=Samain Night
TTITLE1=Moon Cradle
TTITLE2=Huron ''Beltane'' Fire Dance
TTITLE3=Annachie Gordon
TTITLE4=Standing Stones
TTITLE5=Dickens' Dublin (The Palace)
TTITLE6=Breaking The Silence
TTITLE7=Ancient Pines
EXTD=
EXTT0=
EXTT1=
EXTT2=
EXTT3=
EXTT4=
EXTT5=
EXTT6=
EXTT7=
PLAYORDER=
